# xmcd CD database file
#
# Track frame offsets:
#	150
#	10415
#	23528
#	34386
#	45891
#	59414
#	72027
#	81732
#	93675
#	107885
#	119961
#	131414
#	144037
#	156382
#	169410
#	181395
#	194173
#	206876
#	218856
#	230814
#	241224
#	253474
#
# Disc length: 3538 seconds
#
# Revision: 3
# Processed by: cddbd v1.5.2PL0 Copyright (c) Steve Scherf et al.
# Submitted via: CDex 1.70beta2
#
DISCID=580dd016
DTITLE=Lightning Hopkins - Nightmare Blues
DYEAR=1900
DGENRE=Blues
TTITLE0=Down Now Baby
TTITLE1=L. A. Blues
TTITLE2=Short Haired Women
TTITLE3=Can´t Do Like You Used To
TTITLE4=Katie May
TTITLE5=Rocky Mountain Blues
TTITLE6=I Feel So Good
TTITLE7=West Coast Blues
TTITLE8=The Twister
TTITLE9=Big Mama Jump
TTITLE10=Let Me Play With Your Poodle
TTITLE11=Fast Mail Rambler
TTITLE12=Woman Woman Change Your Ways
TTITLE13=Thinkin And Worryin
TTITLE14=Cant Get That Woman Off My Mind
TTITLE15=You´re Not Going To Worry About Life Anymore
TTITLE16=Picture On The Wall
TTITLE17=Someday Baby Blues
TTITLE18=Noghtmare Blues
TTITLE19=Youre Gonna Miss Me
TTITLE20=Sugar Mama
TTITLE21=Come Back Baby
EXTD=
EXTT0=
EXTT1=
EXTT2=
EXTT3=
EXTT4=
EXTT5=
EXTT6=
EXTT7=
EXTT8=
EXTT9=
EXTT10=
EXTT11=
EXTT12=
EXTT13=
EXTT14=
EXTT15=
EXTT16=
EXTT17=
EXTT18=
EXTT19=
EXTT20=
EXTT21=
PLAYORDER=
